<svg t="1729228978123" viewBox="0 0 1024 1024" version="1.1"
  xmlns="http://www.w3.org/2000/svg" p-id="1234" width="200" height="200">
  <path d="M682.666667 341.333333a42.666667 42.666667 0 1 1 42.666666-42.666666A42.666667 42.666667 0 0 1 682.666667 341.333333z m-256 0a42.666667 42.666667 0 1 1 42.666666-42.666666A42.666667 42.666667 0 0 1 426.666667 341.333333z"
    fill="#FFFFFF"></path>
  <path d="M512 85.333333C276.266667 85.333333 85.333333 256 85.333333 469.333333c0 128 64 234.666667 170.666667 309.333334L213.333333 938.666667l170.666667-85.333334C426.666667 874.666667 469.333333 874.666667 512 874.666667c235.733333 0 426.666667-170.666667 426.666667-384S747.733333 85.333333 512 85.333333z m0 725.333334a298.666667 298.666667 0 0 1-128-21.333334l-21.333333-10.666666-85.333334 42.666666 21.333334-106.666666-21.333334-21.333334C213.333333 661.333333 170.666667 576 170.666667 469.333333c0-170.666667 149.333333-298.666667 341.333333-298.666666s341.333333 128 341.333333 298.666666S704 810.666667 512 810.666667z"
    fill="#FFFFFF"></path>
</svg>
